{
  "accessors": [
    {
      "bufferView": 2,
      "componentType": 5126,
      "count": 28800,
      "max": [
        2170.19482421875,
        1816.0,
        2301.1201171875
      ],
      "min": [
        -2170.19482421875,
        332.0,
        -2301.1201171875
      ],
      "type": "VEC3"
    },
    {
      "bufferView": 2,
      "byteOffset": 345600,
      "componentType": 5126,
      "count": 28800,
      "max": [
        0.9100727438926697,
        1.0,
        0.8831369876861572
      ],
      "min": [
        -0.8868166208267212,
        0.40088310837745667,
        -0.8877357244491577
      ],
      "type": "VEC3"
    },
    {
      "bufferView": 3,
      "componentType": 5126,
      "count": 28800,
      "max": [
        1.0,
        0.8887345790863037,
        0.06371239572763443,
        -1.0
      ],
      "min": [
        0.4065132737159729,
        -0.9136443138122559,
        -0.06689255684614182,
        -1.0
      ],
      "type": "VEC4"
    },
    {
      "bufferView": 3,
      "byteOffset": 460800,
      "componentType": 5126,
      "count": 28800,
      "max": [
        1.0,
        1.0,
        1.0,
        0.0
      ],
      "min": [
        1.0,
        1.0,
        1.0,
        0.0
      ],
      "type": "VEC4"
    },
    {
      "bufferView": 1,
      "componentType": 5126,
      "count": 28800,
      "max": [
        1.0,
        1.0
      ],
      "min": [
        0.0,
        0.0
      ],
      "type": "VEC2"
    },
    {
      "bufferView": 1,
      "byteOffset": 230400,
      "componentType": 5126,
      "count": 28800,
      "max": [
        1.0,
        1.0
      ],
      "min": [
        0.0,
        0.0
      ],
      "type": "VEC2"
    },
    {
      "bufferView": 0,
      "componentType": 5125,
      "count": 170754,
      "type": "SCALAR"
    },
    {
      "bufferView": 2,
      "byteOffset": 691200,
      "componentType": 5126,
      "count": 3380,
      "max": [
        1807.0731201171875,
        1424.3485107421875,
        1905.6475830078125
      ],
      "min": [
        -1806.4610595703125,
        366.9831848144531,
        -1912.216064453125
      ],
      "type": "VEC3"
    },
    {
      "bufferView": 2,
      "byteOffset": 731760,
      "componentType": 5126,
      "count": 3380,
      "max": [
        0.9030685424804688,
        0.9999995231628418,
        0.9692583680152893
      ],
      "min": [
        -0.9835659861564636,
        -0.9743961691856384,
        -0.9828723669052124
      ],
      "type": "VEC3"
    },
    {
      "bufferView": 3,
      "byteOffset": 921600,
      "componentType": 5126,
      "count": 3380,
      "max": [
        1.0,
        0.0,
        0.0,
        0.501960813999176
      ],
      "min": [
        1.0,
        0.0,
        0.0,
        0.501960813999176
      ],
      "type": "VEC4"
    },
    {
      "bufferView": 0,
      "byteOffset": 683016,
      "componentType": 5125,
      "count": 10134,
      "type": "SCALAR"
    }
  ],
  "asset": {
    "extras": {
      "author": "Xavier Fischer - Elevation API (https://sketchfab.com/xfischer)",
      "license": "CC-BY-NC-SA-4.0 (http://creativecommons.org/licenses/by-nc-sa/4.0/)",
      "source": "https://sketchfab.com/3d-models/demnet-gltf-export-1-2686acd8424e48e6ae81a6bcd6195799",
      "title": "DEM.Net glTF export #1"
    },
    "generator": "Sketchfab-12.68.0",
    "version": "2.0"
  },
  "bufferViews": [
    {
      "buffer": 0,
      "byteLength": 723552,
      "name": "floatBufferViews",
      "target": 34963
    },
    {
      "buffer": 0,
      "byteLength": 460800,
      "byteOffset": 723552,
      "byteStride": 8,
      "name": "floatBufferViews",
      "target": 34962
    },
    {
      "buffer": 0,
      "byteLength": 772320,
      "byteOffset": 1184352,
      "byteStride": 12,
      "name": "floatBufferViews",
      "target": 34962
    },
    {
      "buffer": 0,
      "byteLength": 975680,
      "byteOffset": 1956672,
      "byteStride": 16,
      "name": "floatBufferViews",
      "target": 34962
    }
  ],
  "buffers": [
    {
      "byteLength": 2932352,
      "uri": "scene.bin"
    }
  ],
  "images": [
    {
      "uri": "textures/material_0_baseColor.jpeg"
    },
    {
      "uri": "textures/material_0_normal.jpeg"
    }
  ],
  "materials": [
    {
      "doubleSided": true,
      "name": "material_0",
      "normalTexture": {
        "index": 1
      },
      "pbrMetallicRoughness": {
        "baseColorTexture": {
          "index": 0
        },
        "metallicFactor": 0.0
      }
    },
    {
      "doubleSided": true,
      "name": "material_1",
      "pbrMetallicRoughness": {
        "roughnessFactor": 0.2909679878048781
      }
    }
  ],
  "meshes": [
    {
      "name": "Object_0",
      "primitives": [
        {
          "attributes": {
            "COLOR_0": 3,
            "NORMAL": 1,
            "POSITION": 0,
            "TANGENT": 2,
            "TEXCOORD_0": 4,
            "TEXCOORD_1": 5
          },
          "indices": 6,
          "material": 0,
          "mode": 4
        }
      ]
    },
    {
      "name": "Object_1",
      "primitives": [
        {
          "attributes": {
            "COLOR_0": 9,
            "NORMAL": 8,
            "POSITION": 7
          },
          "indices": 10,
          "material": 1,
          "mode": 4
        }
      ]
    }
  ],
  "nodes": [
    {
      "children": [
        1
      ],
      "matrix": [
        1.0,
        0.0,
        0.0,
        0.0,
        0.0,
        2.220446049250313e-16,
        -1.0,
        0.0,
        0.0,
        1.0,
        2.220446049250313e-16,
        0.0,
        0.0,
        0.0,
        0.0,
        1.0
      ],
      "name": "Sketchfab_model"
    },
    {
      "children": [
        2
      ],
      "name": "root"
    },
    {
      "children": [
        3
      ],
      "matrix": [
        1.0,
        0.0,
        0.0,
        0.0,
        0.0,
        2.220446049250313e-16,
        1.0,
        0.0,
        0.0,
        -1.0,
        2.220446049250313e-16,
        0.0,
        0.0,
        0.0,
        0.0,
        1.0
      ],
      "name": "GLTF_SceneRootNode"
    },
    {
      "children": [
        4,
        5
      ],
      "name": "_0"
    },
    {
      "mesh": 0,
      "name": "Object_4"
    },
    {
      "mesh": 1,
      "name": "Object_5"
    }
  ],
  "samplers": [
    {
      "magFilter": 9729,
      "minFilter": 9987,
      "wrapS": 10497,
      "wrapT": 10497
    }
  ],
  "scene": 0,
  "scenes": [
    {
      "name": "Sketchfab_Scene",
      "nodes": [
        0
      ]
    }
  ],
  "textures": [
    {
      "sampler": 0,
      "source": 0
    },
    {
      "sampler": 0,
      "source": 1
    }
  ]
}
